# AST/ASF file generated using VICON BodyLanguage
# -----------------------------------------------
:version 1.10
:name VICON
:units
  mass 1.0
  length 0.45
  angle deg
:documentation
   .ast/.asf automatically generated from VICON data using
   VICON BodyBuilder and BodyLanguage model FoxedUp or BRILLIANT.MOD
:root
   order TX TY TZ RX RY RZ
   axis XYZ
   position 0 0 0  
   orientation 0 0 0 
:bonedata
  begin
     id 1 
     name lhipjoint
     direction 0.537252 -0.787203 0.302774 
     length 2.29576 
     axis 0 0 0  XYZ
  end
  begin
     id 2 
     name lfemur
     direction 0.34202 -0.939693 0  
     length 7.31114  
     axis 0 0 20  XYZ
    dof rx ry rz
    limits (-160.0 20.0)
           (-70.0 70.0)
           (-60.0 70.0)
  end
  begin
     id 3 
     name ltibia
     direction 0.34202 -0.939693 0   
     length 8.36008   
     axis 0 0 20   XYZ
    dof rx
    limits (-10.0 170.0)
  end
  begin
     id 4 
     name lfoot
     direction 0.0969116 -0.266263 0.959016   
     length 2.16704   
     axis -90 7.62852e-016 20   XYZ
    dof rx rz
    limits (-45.0 90.0)
           (-70.0 20.0)
  end
  begin
     id 5 
     name ltoes
     direction 1.53563e-011 -4.21779e-011 1   
     length 1.08338   
     axis -90 7.62852e-016 20   XYZ
    dof rx
    limits (-90.0 20.0)
  end
  begin
     id 6 
     name rhipjoint
     direction -0.588228 -0.754791 0.290308   
     length 2.39434  
     axis 0 0 0  XYZ 
  end
  begin
     id 7 
     name rfemur
     direction -0.34202 -0.939693 0   
     length 7.45207   
     axis 0 0 -20   XYZ
    dof rx ry rz
    limits (-160.0 20.0)
           (-70.0 70.0)
           (-70.0 60.0)
  end
  begin
     id 8 
     name rtibia
     direction -0.34202 -0.939693 0   
     length 8.03565   
     axis 0 0 -20   XYZ
    dof rx
    limits (-10.0 170.0)
 end
 begin
     id 9 
     name rfoot
     direction -0.107009 -0.294004 0.949795   
     length 2.11509  
     axis -90 -7.62852e-016 -20   XYZ
    dof rx rz
    limits (-45.0 90.0)
           (-20.0 70.0)
  end
  begin
     id 10 
     name rtoes
     direction -1.53533e-011 -4.22004e-011 1   
     length 1.05493   
     axis -90 -7.62852e-016 -20   XYZ
    dof rx
    limits (-90.0 20.0)
  end
  begin
     id 11 
     name lowerback
     direction -0.0115208 0.997969 -0.0626515   
     length 2.03153   
     axis 0 0 0   XYZ
    dof rx ry rz
    limits (-20.0 45.0)
           (-30.0 30.0)
           (-30.0 30.0)
  end
  begin
     id 12 
     name upperback
     direction -0.00423475 0.999974 -0.00583614   
     length 2.03619   
     axis 0 0 0   XYZ
    dof rx ry rz
    limits (-20.0 45.0)
           (-30.0 30.0)
           (-30.0 30.0)
  end
  begin
     id 13 
     name thorax
     direction 0.00289429 0.999728 0.0231573   
     length 2.03921   
     axis 0 0 0   XYZ
    dof rx ry rz
    limits (-20.0 45.0)
           (-30.0 30.0)
           (-30.0 30.0)
  end
  begin
     id 14 
     name lowerneck
     direction 0.0188995 0.987777 0.154721   
     length 1.78836   
     axis 0 0 0   XYZ
    dof rx ry rz
    limits (-20.0 45.0)
           (-30.0 30.0)
           (-30.0 30.0)
  end
  begin
     id 15 
     name upperneck
     direction -0.00612612 0.992995 -0.118   
     length 1.81789   
     axis 0 0 0   XYZ
    dof rx ry rz
    limits (-20.0 45.0)
           (-30.0 30.0)
           (-30.0 30.0)
  end
  begin
     id 16
     name head
     direction -0.00420226 0.998397 -0.0564482  
     length 1.82234  
     axis 0 0 0   XYZ
    dof rx ry rz
    limits (-20.0 45.0)
           (-30.0 30.0)
           (-30.0 30.0)
  end
  begin
     id 17 
     name lclavicle
     direction 0.916488 0.396539 0.0529676  
     length 3.51732  
     axis 0 0 0   XYZ
    dof ry rz
    limits (-20.0 10.0)
           (0.0 20.0)
  end
  begin
     id 18 
     name lhumerus
     direction 1 -4.4896e-011 8.36962e-028   
     length 5.45077   
     axis 180 -30 -90   XYZ
    dof rx ry rz
    limits (-60.0 90.0)
           (-90.0 90.0)
           (-90.0 90.0)
  end
  begin
     id 19
     name lradius
     direction 1 -4.48962e-011 3.01407e-027   
     length 3.05488   
     axis 180 -30 -90   XYZ
    dof rx
    limits (-10.0 170.0)
  end
  begin
     id 20
     name lwrist
     direction 1 -4.49002e-011 4.72961e-027   
     length 1.52744   
     axis -2.72261e-015 90 90   XYZ
    dof ry
    limits (-180.0 0.0)
 end
  begin
     id 21 
     name lhand
     direction 1 -4.4899e-011 9.45681e-027   
     length 0.638818   
     axis -6.0311e-015 90 90   XYZ
    dof rx rz
    limits (-90.0 90.0)
           (-45.0 45.0)
  end
  begin
     id 22 
     name lfingers
     direction 1 -4.48871e-011 1.88632e-026   
     length 0.515032   
     axis -1.20625e-014 90 90   XYZ
    dof rx
    limits (0.0 90.0)
  end
  begin
     id 23
     name lthumb
     direction 0.707107 -6.34964e-011 0.707107   
     length 0.739485   
     axis -90 45 6.32835e-014   XYZ
    dof rx rz
    limits (-45.0 45.0)
           (-45.0 45.0)
  end
  begin
     id 24 
     name rclavicle
     direction -0.949427 0.303202 0.0815894   
     length 3.76167  
     axis 0 0 0   XYZ 
    dof ry rz
    limits (-10.0 20.0)
           (-20.0 0.0)
  end
  begin
     id 25 
     name rhumerus
     direction -1 -4.48971e-011 -6.43969e-018  
     length 4.88702   
     axis 180 30 90   XYZ
    dof rx ry rz
    limits (-90.0 60.0)
           (-90.0 90.0)
           (-90.0 90.0)
  end
  begin
     id 26 
     name rradius
     direction -1 -4.48987e-011 5.46662e-027   
     length 3.22603   
     axis 180 30 90   XYZ
    dof rx
    limits (-10.0 170.0)
  end
  begin
     id 27 
     name rwrist
     direction -1 -4.48956e-011 4.72476e-027   
     length 1.61302   
     axis -2.72261e-015 -90 -90   XYZ
    dof ry
    limits (-180.0 0.0)
  end
  begin
     id 28
     name rhand
     direction -1 -4.4889e-011 9.43571e-027   
     length 0.716293   
     axis -6.0311e-015 -90 -90   XYZ
    dof rx rz
    limits (-90.0 90.0)
           (-45.0 45.0)
  end
  begin
     id 29
     name rfingers
     direction -1 -4.48887e-011 1.88701e-026   
     length 0.577494   
     axis -1.20625e-014 -90 -90   XYZ
    dof rx
    limits (0.0 90.0)
  end
  begin
     id 30
     name rthumb
     direction -0.707107 -6.34825e-011 0.707107   
     length 0.829169   
     axis -90 -45 -6.32835e-014   XYZ
    dof rx rz
    limits (-45.0 45.0)
           (-45.0 45.0)
  end
:hierarchy
  begin
    root lhipjoint rhipjoint lowerback
    lhipjoint lfemur
    lfemur ltibia
    ltibia lfoot
    lfoot ltoes
    rhipjoint rfemur
    rfemur rtibia
    rtibia rfoot
    rfoot rtoes
    lowerback upperback
    upperback thorax
    thorax lowerneck lclavicle rclavicle
    lowerneck upperneck
    upperneck head
    lclavicle lhumerus
    lhumerus lradius
    lradius lwrist
    lwrist lhand lthumb
    lhand lfingers
    rclavicle rhumerus
    rhumerus rradius
    rradius rwrist
    rwrist rhand rthumb
    rhand rfingers
  end

#!OML:ASF F:\VICON\USERDATA\INSTALL\rory3\rory3.ASF
:FULLY-SPECIFIED
:DEGREES
2954
root 1.65242 18.5162 0.872048 -212.163 83.1867 -221.827
lowerback -11.7574 0.881835 5.17307
upperback -5.16442 0.849142 3.30283
thorax 1.19272 0.51817 0.633335
lowerneck -8.54395 17.8707 14.0124
upperneck 1.09727 23.7816 -16.6945
head 5.3643 11.4261 -4.85974
rclavicle -4.77083e-015 -3.18055e-014
rhumerus -5.07303 11.3051 -101.803
rradius 27.4872
rwrist -44.0793
rhand -9.01449 6.7719
rfingers 7.12502
rthumb 16.9325 -22.51
lclavicle -4.77083e-015 -3.18055e-014
lhumerus -18.4198 51.1141 40.8029
lradius 23.68
lwrist 37.2414
lhand -7.06684 20.5397
lfingers 7.12502
lthumb 18.8065 49.6506
rfemur -6.77483 -9.95798 14.8356
rtibia 9.17213
rfoot -10.9834 5.87207
rtoes -8.07423
lfemur -9.66538 6.01179 -20.1338
ltibia 11.0036
lfoot -10.1499 -3.8179
ltoes -27.6772
2955
root 1.65637 18.5122 0.86723 -212.191 83.1283 -221.91
lowerback -11.852 0.867552 5.17896
upperback -5.21478 0.829663 3.32772
thorax 1.19016 0.510246 0.654776
lowerneck -8.53657 17.8233 13.9307
upperneck 0.934257 23.6987 -16.6391
head 5.28376 11.3932 -4.85655
rclavicle -2.18663e-015 -1.27222e-014
rhumerus -5.0056 11.7483 -101.85
rradius 27.8055
rwrist -44.4451
rhand -9.02311 6.78019
rfingers 7.12502
rthumb 16.9242 -22.5024
lclavicle -2.18663e-015 -1.27222e-014
lhumerus -18.4096 51.3455 40.5604
lradius 23.7249
lwrist 37.279
lhand -7.03393 20.7248
lfingers 7.12502
lthumb 18.8382 49.8326
rfemur -6.81149 -10.009 14.7937
rtibia 9.16715
rfoot -10.9901 5.87563
rtoes -8.10228
lfemur -9.70888 6.12713 -20.2084
ltibia 11.0114
lfoot -10.1366 -3.9736
ltoes -27.5178
2956
root 1.66146 18.5082 0.862581 -212.382 83.047 -222.101
lowerback -11.9121 0.826953 5.16512
upperback -5.22715 0.774939 3.35677
thorax 1.2078 0.484538 0.686746
lowerneck -8.61997 17.803 13.7945
upperneck 0.806496 23.6538 -16.581
head 5.22723 11.3735 -4.83069
rclavicle -2.46493e-014 3.49861e-014
rhumerus -4.9559 12.5607 -101.836
rradius 28.1918
rwrist -45.1352
rhand -9.18885 6.64853
rfingers 7.12502
rthumb 16.7646 -22.6477
lclavicle -2.46493e-014 3.49861e-014
lhumerus -18.4659 51.7216 40.2673
lradius 23.7733
lwrist 37.3987
lhand -6.94679 20.8233
lfingers 7.12502
lthumb 18.922 49.9229
rfemur -6.79082 -10.0681 14.7133
rtibia 9.22202
rfoot -11.0057 5.9126
rtoes -7.95009
lfemur -9.66501 6.07079 -20.2934
ltibia 10.9859
lfoot -10.1529 -3.95859
ltoes -27.4639
2957
root 1.66697 18.5087 0.857409 -212.319 83.0359 -222.026
lowerback -11.9586 0.783623 5.22419
upperback -5.22507 0.708601 3.41949
thorax 1.23274 0.452867 0.711453
lowerneck -8.81064 17.7882 13.5709
upperneck 0.853607 23.6176 -16.3825
head 5.21291 11.3512 -4.73903
rclavicle -3.57812e-015 -8.90555e-014
rhumerus -4.83776 13.0945 -101.834
rradius 28.4132
rwrist -45.4016
rhand -9.27697 6.52451
rfingers 7.12502
rthumb 16.6798 -22.7789
lclavicle -3.57812e-015 -8.90555e-014
lhumerus -18.6175 51.8033 39.9525
lradius 23.8551
lwrist 37.8108
lhand -6.8416 20.8301
lfingers 7.12502
lthumb 19.0232 49.9198
rfemur -6.80487 -10.0814 14.7103
rtibia 9.30797
rfoot -11.0713 5.89122
rtoes -8.03238
lfemur -9.60886 6.21877 -20.3216
ltibia 10.9395
lfoot -10.1531 -4.10347
ltoes -27.745
2958
root 1.67092 18.5079 0.851096 -212.493 82.9907 -222.149
lowerback -11.9256 0.752917 5.25063
upperback -5.23028 0.668386 3.45585
thorax 1.20791 0.43282 0.72881
lowerneck -9.0585 17.7684 13.3729
upperneck 0.998747 23.5768 -16.1775
head 5.23952 11.321 -4.64074
rclavicle -8.94531e-015 -1.43125e-014
rhumerus -4.72557 13.2192 -101.887
rradius 28.5372
rwrist -45.3829
rhand -9.27534 6.51501
rfingers 7.12502
rthumb 16.6814 -22.7882
lclavicle -8.94531e-015 -1.43125e-014
lhumerus -18.7289 51.9704 39.7187
lradius 23.9305
lwrist 37.9561
lhand -6.80059 21.0022
lfingers 7.12502
lthumb 19.0626 50.088
rfemur -6.68335 -10.1131 14.6306
rtibia 9.20401
rfoot -11.0218 5.86203
rtoes -8.13943
lfemur -9.59999 6.29391 -20.3829
ltibia 11.0489
lfoot -10.2116 -4.23861
ltoes -27.9962
2959
root 1.67285 18.5113 0.845769 -212.553 82.9093 -222.151
lowerback -11.8754 0.747167 5.28694
upperback -5.2359 0.660789 3.41654
thorax 1.17527 0.426925 0.66567
lowerneck -9.21107 17.7363 13.4229
upperneck 1.03843 23.5101 -16.1608
head 5.27006 11.28 -4.63905
rclavicle 6.16232e-015 -9.54166e-015
rhumerus -4.61472 13.2348 -101.953
rradius 28.682
rwrist -45.4998
rhand -9.29851 6.51644
rfingers 7.12502
rthumb 16.6591 -22.7887
lclavicle 6.16232e-015 -9.54166e-015
lhumerus -18.6473 52.2253 39.5698
lradius 23.9508
lwrist 37.9312
lhand -6.61569 21.027
lfingers 7.12502
lthumb 19.2404 50.0952
rfemur -6.506 -10.1824 14.5428
rtibia 9.05131
rfoot -10.9488 5.86893
rtoes -7.94992
lfemur -9.65048 6.40368 -20.4641
ltibia 11.2006
lfoot -10.2286 -4.38594
ltoes -27.9515
2960
root 1.67477 18.515 0.843083 -212.054 82.9281 -221.62
lowerback -11.8702 0.778109 5.39496
upperback -5.25271 0.693583 3.41372
thorax 1.15595 0.442066 0.606388
lowerneck -9.3077 17.6733 13.461
upperneck 1.06416 23.3997 -16.0924
head 5.27296 11.2225 -4.63457
rclavicle -3.37934e-015 4.29375e-014
rhumerus -4.57891 13.3602 -101.94
rradius 28.8836
rwrist -45.7742
rhand -9.42278 6.63609
rfingers 7.12502
rthumb 16.5394 -22.679
lclavicle -3.37934e-015 4.29375e-014
lhumerus -18.4892 52.1087 39.5945
lradius 24.0344
lwrist 38.3152
lhand -6.86014 20.887
lfingers 7.12502
lthumb 19.0053 49.9785
rfemur -6.45475 -10.1994 14.5997
rtibia 9.04715
rfoot -10.9637 5.87507
rtoes -7.94096
lfemur -9.63434 6.4049 -20.3984
ltibia 11.2136
lfoot -10.2402 -4.39894
ltoes -27.829
2961
root 1.67718 18.5112 0.840853 -210.953 82.9432 -220.565
lowerback -11.9707 0.738696 5.53171
upperback -5.28643 0.625562 3.48858
thorax 1.17208 0.409858 0.600793
lowerneck -9.35612 17.662 13.4015
upperneck 1.07013 23.3748 -16.0055
head 5.26005 11.2105 -4.60386
rclavicle 3.57812e-015 0
rhumerus -4.67473 13.8384 -101.919
rradius 29.267
rwrist -46.1755
rhand -9.49656 6.71153
rfingers 7.12502
rthumb 16.4684 -22.6095
lclavicle 3.57812e-015 0
lhumerus -18.6201 51.9631 39.4444
lradius 24.1181
lwrist 38.7716
lhand -7.13904 20.8289
lfingers 7.12502
lthumb 18.7371 49.9465
rfemur -6.45749 -10.2578 14.7378
rtibia 8.97829
rfoot -10.9138 5.89812
rtoes -7.69433
lfemur -9.69341 6.4206 -20.2764
ltibia 11.2595
lfoot -10.2796 -4.48527
ltoes -27.7213
2962
root 1.68125 18.5063 0.84146 -211.017 82.8937 -220.663
lowerback -12.0825 0.66065 5.44295
upperback -5.26608 0.521057 3.54526
thorax 1.25036 0.361637 0.697849
lowerneck -9.43037 17.6725 13.3208
upperneck 1.00097 23.3706 -15.9225
head 5.22875 11.2097 -4.56902
rclavicle 7.55382e-015 -4.45278e-014
rhumerus -4.78682 14.6128 -101.877
rradius 29.7874
rwrist -46.8588
rhand -9.09362 5.02212
rfingers 7.12502
rthumb 16.8563 -24.2663
lclavicle 7.55382e-015 -4.45278e-014
lhumerus -18.7701 52.1189 39.2258
lradius 24.1661
lwrist 38.8163
lhand -7.06534 21.035
lfingers 7.12502
lthumb 18.808 50.1457
rfemur -6.40166 -10.2968 14.7123
rtibia 8.85809
rfoot -10.8996 5.89322
rtoes -7.56595
lfemur -9.75732 6.44894 -20.3196
ltibia 11.3494
lfoot -10.3336 -4.53887
ltoes -27.6994
2963
root 1.68579 18.5115 0.842112 -211.039 82.8849 -220.708
lowerback -12.1552 0.60827 5.39521
upperback -5.23422 0.447496 3.57476
thorax 1.32108 0.327172 0.746972
lowerneck -9.56087 17.6981 13.3834
upperneck 1.00014 23.3772 -15.9016
head 5.25363 11.2068 -4.55864
rclavicle -5.56597e-015 1.11319e-014
rhumerus -4.78293 15.2628 -101.861
rradius 30.1189
rwrist -47.5083
rhand -9.05921 4.26971
rfingers 7.12502
rthumb 16.8894 -25.0159
lclavicle -5.56597e-015 1.11319e-014
lhumerus -18.8069 51.8678 39.1677
lradius 24.3148
lwrist 39.0536
lhand -7.28174 21.1513
lfingers 7.12502
lthumb 18.5998 50.2821
rfemur -6.47932 -10.2996 14.7264
rtibia 8.99802
rfoot -10.9862 5.90009
rtoes -7.42894
lfemur -9.73485 6.60308 -20.3393
ltibia 11.2405
lfoot -10.2248 -4.69308
ltoes -27.6992
2964
root 1.69037 18.5164 0.838346 -211.085 82.8615 -220.768
lowerback -12.2395 0.585081 5.41085
upperback -5.21052 0.406197 3.58067
thorax 1.39044 0.307821 0.740298
lowerneck -9.67396 17.6905 13.3321
upperneck 0.995617 23.3426 -15.7857
head 5.24308 11.1881 -4.51768
rclavicle 2.04748e-014 -3.18055e-014
rhumerus -4.8125 15.3886 -101.871
rradius 30.3794
rwrist -47.6767
rhand -9.09763 3.97515
rfingers 7.12502
rthumb 16.8525 -25.3136
lclavicle 2.04748e-014 -3.18055e-014
lhumerus -18.8578 51.8371 39.0914
lradius 24.3565
lwrist 39.0674
lhand -7.21015 21.102
lfingers 7.12502
lthumb 18.6687 50.2261
rfemur -6.54743 -10.3192 14.6949
rtibia 9.14523
rfoot -11.0816 5.92813
rtoes -7.78001
lfemur -9.69073 6.70884 -20.3811
ltibia 11.1396
lfoot -10.1718 -4.83756
ltoes -27.5412
2965
root 1.69098 18.5111 0.832072 -211.974 82.6939 -221.663
lowerback -12.2541 0.571594 5.28706
upperback -5.22231 0.401079 3.51518
thorax 1.38675 0.305016 0.740489
lowerneck -9.8053 17.6517 13.3314
upperneck 1.07365 23.2702 -15.6954
head 5.26547 11.1467 -4.49132
rclavicle -1.98785e-015 -8.26944e-014
rhumerus -4.81305 15.1903 -101.857
rradius 30.51
rwrist -47.6087
rhand -9.10384 3.8058
rfingers 7.12502
rthumb 16.8465 -25.4834
lclavicle -1.98785e-015 -8.26944e-014
lhumerus -18.8215 51.9365 39.1041
lradius 24.3777
lwrist 39.0026
lhand -7.16507 21.1219
lfingers 7.12502
lthumb 18.7121 50.2419
rfemur -6.52515 -10.4114 14.4605
rtibia 9.16328
rfoot -11.0999 5.94603
rtoes -7.79365
lfemur -9.67561 6.64121 -20.6117
ltibia 11.1422
lfoot -10.1946 -4.86559
ltoes -27.499
2966
root 1.6881 18.5062 0.823053 -211.005 82.6526 -220.697
lowerback -12.2625 0.553497 5.46631
upperback -5.23493 0.359577 3.52749
thorax 1.37629 0.283025 0.647746
lowerneck -9.79215 17.6346 13.3074
upperneck 0.985 23.234 -15.6483
head 5.2218 11.1339 -4.48636
rclavicle -5.56597e-015 3.18055e-014
rhumerus -4.87379 15.4882 -101.792
rradius 30.6853
rwrist -47.9628
rhand -9.21662 3.55565
rfingers 7.12502
rthumb 16.7379 -25.7428
lclavicle -5.56597e-015 3.18055e-014
lhumerus -18.8639 52.1441 39.0483
lradius 24.3573
lwrist 38.8575
lhand -7.19329 21.1303
lfingers 7.12502
lthumb 18.6849 50.2529
rfemur -6.5941 -10.5152 14.5192
rtibia 9.27958
rfoot -11.1512 5.94226
rtoes -8.13434
lfemur -9.66108 6.55148 -20.5631
ltibia 11.0746
lfoot -10.162 -4.84946
ltoes -27.7104
2967
root 1.68829 18.5066 0.817164 -210.286 82.6154 -219.975
lowerback -12.3201 0.528605 5.59307
upperback -5.19678 0.304765 3.55224
thorax 1.44532 0.256187 0.596496
lowerneck -9.892 17.6524 13.2756
upperneck 0.965161 23.2431 -15.6099
head 5.22335 11.1357 -4.46321
rclavicle -5.96354e-015 -3.18055e-015
rhumerus -4.8791 16.0186 -101.665
rradius 30.86
rwrist -48.4965
rhand -9.32586 3.48121
rfingers 7.12502
rthumb 16.6327 -25.8261
lclavicle -5.96354e-015 -3.18055e-015
lhumerus -18.8547 51.9244 39.1301
lradius 24.4305
lwrist 39.1065
lhand -7.31089 21.1355
lfingers 7.12502
lthumb 18.5718 50.269
rfemur -6.69928 -10.5945 14.5719
rtibia 9.49013
rfoot -11.2585 5.94818
rtoes -8.36844
lfemur -9.60272 6.44485 -20.5191
ltibia 10.9272
lfoot -10.0665 -4.82653
ltoes -27.5809
2968
root 1.6901 18.5066 0.814256 -210.979 82.5422 -220.637
lowerback -12.3281 0.513476 5.4813
upperback -5.17595 0.293188 3.54021
thorax 1.47181 0.251302 0.644998
lowerneck -9.9227 17.6385 13.2156
upperneck 0.958667 23.2178 -15.5356
head 5.2057 11.1246 -4.43793
rclavicle 2.50469e-014 -1.59028e-014
rhumerus -4.9169 15.8474 -101.621
rradius 30.9027
rwrist -48.4731
rhand -9.22979 3.81059
rfingers 7.12502
rthumb 16.7252 -25.4889
lclavicle 2.50469e-014 -1.59028e-014
lhumerus -18.8956 51.9084 39.152
lradius 24.4601
lwrist 39.0965
lhand -7.22692 21.1118
lfingers 7.12502
lthumb 18.6526 50.2375
rfemur -6.67186 -10.6135 14.4356
rtibia 9.54332
rfoot -11.2974 5.95746
rtoes -8.42803
lfemur -9.55128 6.39081 -20.65
ltibia 10.9071
lfoot -10.0631 -4.78999
ltoes -27.4531
